<?xml version="1.0" encoding="UTF-8"?>
<svg id="Layer_1" data-name="Layer 1" xmlns="http://www.w3.org/2000/svg" viewBox="0 0 960 960">
  <defs>
    <style>
      .cls-1 {
        fill: #c10230;
      }

      .cls-1, .cls-2 {
        stroke-width: 0px;
      }

      .cls-2 {
        fill: #005288;
      }
    </style>
  </defs>
  <g>
    <path class="cls-1" d="M134.62,723.74s4.09-56.62,36.77-133.67h-23.93c-8.76,43.19-12.84,88.14-12.84,133.67Z"/>
    <path class="cls-1" d="M637.77,236.35c-131.33,1.17-293.02,47.86-384.66,142.42-11.67,11.67-22.18,24.52-31.52,37.94l64.21.58c.58-.58,1.17-1.75,2.33-2.33,136-142.42,380.57-177.44,380.57-177.44-9.92-.58-20.43-1.17-30.94-1.17Z"/>
  </g>
  <polygon class="cls-2" points="20.22 462.24 34.23 462.24 34.23 548.63 20.22 548.63 20.22 562.64 70.42 562.64 70.42 548.63 55.83 548.63 55.83 462.24 70.42 462.24 70.42 447.65 20.22 447.65 20.22 462.24"/>
  <path class="cls-2" d="M163.81,506.02c-5.25-4.09-10.51-5.84-16.93-8.17l-14.01-5.25c-7.59-2.92-16.93-6.42-16.93-15.76,0-4.67,1.17-8.76,4.09-11.67,3.5-4.09,8.76-4.67,13.43-4.67,13.43,0,19.85,9.34,20.43,22.18v3.5h18.68v-37.94h-18.09v9.92c-5.84-9.34-16.93-11.67-26.85-11.67-13.43,0-22.18,4.67-26.85,11.67-2.33,3.5-7,11.67-7,21.6,0,7.59,2.33,14.59,7.59,19.85,5.84,5.84,11.67,8.17,19.26,11.09l14.59,5.84c8.76,3.5,16.93,6.42,16.93,18.09s-8.76,16.34-18.68,16.34c-15.76,0-21.01-13.43-21.01-27.43h-19.26v40.28h18.09v-10.51c5.84,9.92,16.34,12.84,26.85,12.84,9.34,0,22.76-2.33,29.77-12.84,4.09-5.25,7-11.09,7-20.43,0-2.92-.58-6.42-1.17-9.34-2.33-8.17-4.09-12.84-9.92-17.51Z"/>
  <polygon class="cls-2" points="208.75 548.63 208.75 562.64 261.87 562.64 261.87 548.63 246.7 548.63 246.7 462.82 264.79 462.82 264.79 486.76 283.47 486.76 283.47 447.65 187.74 447.65 187.74 486.76 206.42 486.76 206.42 462.82 224.51 462.82 224.51 548.63 208.75 548.63"/>
  <path class="cls-2" d="M320.24,560.3c7,3.5,14.59,4.67,22.18,4.67,11.09,0,22.18-1.17,33.27-1.17h28.6v-15.18h-7.59c-3.5,0-7,.58-10.51.58s-7,1.17-10.51,1.17c16.34-9.34,21.6-29.18,21.6-46.7,0-11.09-2.92-23.35-8.17-33.27-5.84-9.92-13.43-16.93-24.52-21.01-7-2.33-14.01-3.5-21.6-3.5-14.59,0-29.77,5.25-39.11,16.93-10.51,12.84-14.01,27.43-14.01,43.78,0,14.59,2.92,28.6,12.26,40.28,4.67,4.67,12.84,10.51,18.09,13.43h0ZM319.66,476.25c4.67-9.92,14.01-16.34,25.1-16.34s18.09,5.25,23.93,15.18c5.25,8.76,6.42,21.6,6.42,32.1,0,18.68-8.17,43.78-30.35,43.78-24.52,0-30.35-24.52-30.35-44.36,0-10.51,1.17-21.01,5.25-30.35Z"/>
  <path class="cls-2" d="M495.35,559.14c9.92-5.25,15.76-15.18,15.76-26.27,0-14.59-9.34-28.6-25.1-29.18,14.59-2.33,22.76-11.67,22.76-26.27,0-8.17-3.5-17.51-9.92-22.76-7.59-5.84-16.34-6.42-25.68-6.42h-57.79v14.59h13.43v85.8h-13.43v14.59h50.78c9.34-.58,21.6,0,29.19-4.09ZM450.99,462.24h9.34c5.25,0,13.43-.58,18.09,1.17,6.42,2.92,8.17,8.76,8.17,15.18,0,5.25-2.33,10.51-5.84,14.01-4.09,3.5-11.67,3.5-16.93,3.5h-12.84v-33.85ZM450.99,548.63v-37.36h14.59c5.84,0,11.09-.58,16.34,2.92,5.25,3.5,7.59,8.76,7.59,15.18,0,5.84-1.75,10.51-6.42,15.18-4.67,4.09-11.09,4.09-16.93,4.09,0,0-15.18,0-15.18,0Z"/>
  <g>
    <path class="cls-2" d="M197.88,590.74h7.74v42.19h-7.74v-42.19Z"/>
    <path class="cls-2" d="M214.97,606.94c0-1.93-.07-3.75-.24-5.14h7.02c.07,1.57.24,3.21.24,4.77h.19-.07c1.09-1.88,3.21-5.26,8.28-5.26,7.07,0,9.19,5.26,9.19,11.54v20.07h-7.5v-18.68c0-4.78-1.21-6.78-4.29-6.78-3.93,0-5.31,3.33-5.31,7.31v18.13h-7.5v-25.99.02Z"/>
    <path class="cls-2" d="M250.57,595.4l7.5-2.29v8.71h6.23v5.5h-6.23v16.14c0,3.33,1.21,4.29,3.38,4.29,1.33,0,2.3-.36,2.84-.67v5.31c-1.15.55-2.78,1.03-5.02,1.03-5.56,0-8.71-2.54-8.71-9.07v-17.04h-4.95v-5.5h4.95v-6.4h.01Z"/>
    <path class="cls-2" d="M293.36,631.42c-1.57.67-4.83,2-9.31,2-10.04,0-14.39-7.19-14.39-15.59,0-9.31,4.9-16.5,12.82-16.5,6.71,0,12.45,3.93,12.45,16.63v1.45h-18.01c0,5.31,2.12,8.52,7.92,8.52,4.59,0,6.78-1.39,8.16-2.42l.36,5.92h0ZM287.67,614.67c0-5.5-1.81-8.28-5.19-8.28-3.93,0-5.56,4.17-5.56,8.28h10.76Z"/>
    <path class="cls-2" d="M302.41,606.94c0-1.93-.05-3.75-.24-5.14h6.76c.07,1.88.24,3.81.24,5.68h.12c.91-2.42,3.26-6.16,7.92-6.16.48,0,.85.12,1.27.19v7.02c-.67-.19-1.33-.31-2.12-.31-3.09,0-6.47,1.88-6.47,7.68v17.04h-7.5v-25.99h.01Z"/>
    <path class="cls-2" d="M324.89,606.94c0-1.93-.07-3.75-.24-5.14h7.02c.07,1.57.24,3.21.24,4.77h.19-.07c1.09-1.88,3.21-5.26,8.28-5.26,7.07,0,9.19,5.26,9.19,11.54v20.07h-7.5v-18.68c0-4.78-1.21-6.78-4.29-6.78-3.93,0-5.31,3.33-5.31,7.31v18.13h-7.5v-25.99.02Z"/>
    <path class="cls-2" d="M359.21,603.61c2.12-.96,5.07-2.29,9.85-2.29,9.67,0,11.9,4.71,11.9,12.51v13.6c0,2.24.24,4.29.43,5.5h-6.78c-.36-1.21-.43-2.72-.43-4.23h-.12c-1.88,2.54-4.23,4.71-8.71,4.71-4.83,0-9.31-3.33-9.31-9.13,0-8.47,6.9-10.58,16.38-10.58h1.51v-1.15c0-3.09-1.51-5.92-5.8-5.92-3.74,0-7.07,1.81-8.52,3.02l-.43-6.04h.02ZM373.96,617.7h-.67c-6.4,0-10.21,1.33-10.21,5.86,0,2.84,1.88,4.78,4.78,4.78,4.47,0,6.11-3.33,6.11-8.89v-1.75h-.01Z"/>
    <path class="cls-2" d="M392.15,595.4l7.5-2.29v8.71h6.23v5.5h-6.23v16.14c0,3.33,1.21,4.29,3.38,4.29,1.33,0,2.3-.36,2.84-.67v5.31c-1.15.55-2.78,1.03-5.02,1.03-5.56,0-8.71-2.54-8.71-9.07v-17.04h-4.95v-5.5h4.95v-6.4h.01Z"/>
    <path class="cls-2" d="M412.69,588.56h7.74v7.38h-7.74v-7.38ZM412.81,601.8h7.5v31.13h-7.5v-31.13Z"/>
    <path class="cls-2" d="M442.12,601.32c6.35,0,13.66,3.33,13.66,16.02s-7.31,16.08-13.66,16.08-13.73-3.02-13.73-16.08,7.38-16.02,13.73-16.02ZM442.12,628.1c4.83,0,5.92-5.56,5.92-10.76s-1.09-10.7-5.92-10.7-5.99,5.5-5.99,10.7,1.15,10.76,5.99,10.76Z"/>
    <path class="cls-2" d="M463.15,606.94c0-1.93-.05-3.75-.24-5.14h7.02c.05,1.57.24,3.21.24,4.77h.19-.07c1.09-1.88,3.21-5.26,8.28-5.26,7.07,0,9.19,5.26,9.19,11.54v20.07h-7.5v-18.68c0-4.78-1.21-6.78-4.29-6.78-3.93,0-5.31,3.33-5.31,7.31v18.13h-7.5v-25.99.02Z"/>
    <path class="cls-2" d="M497.46,603.61c2.12-.96,5.08-2.29,9.85-2.29,9.67,0,11.91,4.71,11.91,12.51v13.6c0,2.24.24,4.29.43,5.5h-6.76c-.36-1.21-.43-2.72-.43-4.23h-.12c-1.88,2.54-4.23,4.71-8.71,4.71-4.83,0-9.31-3.33-9.31-9.13,0-8.47,6.9-10.58,16.38-10.58h1.52v-1.15c0-3.09-1.52-5.92-5.8-5.92-3.75,0-7.07,1.81-8.52,3.02l-.43-6.04h-.01ZM512.21,617.7h-.67c-6.4,0-10.21,1.33-10.21,5.86,0,2.84,1.88,4.78,4.78,4.78,4.47,0,6.11-3.33,6.11-8.89v-1.75h-.01Z"/>
    <path class="cls-2" d="M528.34,587.59h7.5v45.34h-7.5v-45.34Z"/>
    <path class="cls-2" d="M562.49,624.77c1.51.96,4.83,2.6,8.95,2.6,3.38,0,6.4-1.88,6.4-6.11,0-3.02-1.76-4.35-5.5-6.4l-3.93-2.17c-4.17-2.29-6.9-5.62-6.9-11.06,0-7.55,6.23-11.48,13.3-11.48,4.47,0,7.62,1.15,8.83,1.52l-.36,6.47c-1.88-.73-4.35-1.81-7.92-1.81-3.87,0-5.86,2.06-5.86,4.95,0,3.14,2.12,4.35,4.47,5.68l4.54,2.54c4.95,2.78,7.31,5.44,7.31,11.37,0,8.59-6.1,12.69-14.14,12.69-4.23,0-7.5-.6-9.61-1.88l.43-6.9h-.01Z"/>
    <path class="cls-2" d="M606.48,601.32c6.35,0,13.66,3.33,13.66,16.02s-7.31,16.08-13.66,16.08-13.73-3.02-13.73-16.08,7.38-16.02,13.73-16.02ZM606.48,628.1c4.83,0,5.92-5.56,5.92-10.76s-1.09-10.7-5.92-10.7-5.98,5.5-5.98,10.7,1.15,10.76,5.98,10.76Z"/>
    <path class="cls-2" d="M629.92,607.3h-5.2v-5.5h5.2v-6.35c0-4.47,2.12-8.59,8.95-8.59,2,0,3.93.43,5.38.73l-.31,5.43c-.91-.24-1.88-.48-2.96-.48-2.17,0-3.57,1.52-3.57,3.87v5.38h5.68v5.5h-5.68v25.63h-7.5v-25.63h0Z"/>
    <path class="cls-2" d="M651.85,595.4l7.5-2.29v8.71h6.23v5.5h-6.23v16.14c0,3.33,1.21,4.29,3.38,4.29,1.33,0,2.29-.36,2.84-.67v5.31c-1.15.55-2.78,1.03-5.02,1.03-5.56,0-8.71-2.54-8.71-9.07v-17.04h-4.95v-5.5h4.95v-6.4h.01Z"/>
    <path class="cls-2" d="M690.89,608.7h-.12l-5.44,24.24h-8.22l-8.4-31.13h7.74l5.02,24.24h.12l5.26-24.24h8.52l5.14,24.24h.12l5.02-24.24h7.26l-8.28,31.13h-8.16l-5.56-24.24Z"/>
    <path class="cls-2" d="M719.53,603.61c2.12-.96,5.08-2.29,9.85-2.29,9.67,0,11.91,4.71,11.91,12.51v13.6c0,2.24.24,4.29.43,5.5h-6.78c-.36-1.21-.43-2.72-.43-4.23h-.12c-1.88,2.54-4.23,4.71-8.71,4.71-4.83,0-9.31-3.33-9.31-9.13,0-8.47,6.9-10.58,16.38-10.58h1.52v-1.15c0-3.09-1.52-5.92-5.8-5.92-3.75,0-7.07,1.81-8.52,3.02l-.43-6.04h0ZM734.29,617.7h-.67c-6.4,0-10.21,1.33-10.21,5.86,0,2.84,1.88,4.78,4.78,4.78,4.47,0,6.11-3.33,6.11-8.89v-1.75h-.01Z"/>
    <path class="cls-2" d="M749.93,606.94c0-1.93-.07-3.75-.24-5.14h6.78c.05,1.88.24,3.81.24,5.68h.12c.91-2.42,3.26-6.16,7.92-6.16.48,0,.85.12,1.27.19v7.02c-.67-.19-1.33-.31-2.12-.31-3.08,0-6.47,1.88-6.47,7.68v17.04h-7.5v-25.99h0Z"/>
    <path class="cls-2" d="M794.67,631.42c-1.57.67-4.83,2-9.31,2-10.04,0-14.39-7.19-14.39-15.59,0-9.31,4.9-16.5,12.82-16.5,6.71,0,12.45,3.93,12.45,16.63v1.45h-18.01c0,5.31,2.12,8.52,7.92,8.52,4.59,0,6.76-1.39,8.16-2.42l.36,5.92h0ZM788.98,614.67c0-5.5-1.81-8.28-5.19-8.28-3.93,0-5.56,4.17-5.56,8.28h10.76Z"/>
    <path class="cls-2" d="M204.04,662.83h-9.43v-6.16h26.54v6.16h-9.37v36.03h-7.74v-36.03Z"/>
    <path class="cls-2" d="M244.96,697.34c-1.57.67-4.83,2-9.31,2-10.04,0-14.39-7.19-14.39-15.59,0-9.31,4.9-16.51,12.82-16.51,6.71,0,12.45,3.93,12.45,16.63v1.45h-18.01c0,5.32,2.12,8.52,7.92,8.52,4.59,0,6.76-1.4,8.16-2.42l.36,5.92h0ZM239.27,680.6c0-5.5-1.81-8.28-5.19-8.28-3.93,0-5.56,4.17-5.56,8.28h10.76Z"/>
    <path class="cls-2" d="M252.92,691.6c1.21.48,4.29,2.05,7.8,2.05,2.72,0,4.83-.67,4.83-3.08,0-1.21-.6-2.36-3.33-3.93l-3.09-1.81c-3.14-1.88-6.59-3.87-6.59-8.77,0-4.29,4.17-8.83,10.76-8.83,3.99,0,7.07,1.03,7.8,1.27l-.43,5.8c-1.88-.72-3.87-1.39-6.59-1.39-3.02,0-4.29,1.15-4.29,3.02,0,1.69,1.33,2.6,3.5,3.99l3.69,2.36c3.87,2.48,5.8,4.23,5.8,7.86,0,5.74-4.83,9.19-11.61,9.19-3.87,0-7.07-.91-8.64-1.52l.36-6.23h.01Z"/>
    <path class="cls-2" d="M282.6,661.31l7.5-2.29v8.71h6.23v5.5h-6.23v16.14c0,3.33,1.21,4.29,3.38,4.29,1.33,0,2.3-.36,2.84-.67v5.31c-1.15.55-2.78,1.03-5.02,1.03-5.56,0-8.71-2.54-8.71-9.07v-17.04h-4.95v-5.5h4.95v-6.4h.01Z"/>
    <path class="cls-2" d="M303.13,654.49h7.74v7.38h-7.74v-7.38ZM303.25,667.72h7.5v31.13h-7.5v-31.13Z"/>
    <path class="cls-2" d="M319.7,672.86c0-1.93-.05-3.74-.24-5.14h7.02c.05,1.57.24,3.21.24,4.78h.19-.07c1.09-1.88,3.21-5.26,8.28-5.26,7.07,0,9.19,5.26,9.19,11.54v20.07h-7.5v-18.68c0-4.78-1.21-6.76-4.29-6.76-3.93,0-5.31,3.33-5.31,7.31v18.13h-7.5v-25.99h-.01Z"/>
    <path class="cls-2" d="M353.48,703.69c1.76.96,5.26,2.66,9.19,2.66,7.07,0,8.23-4.9,8.23-9.79v-2.96h-.12c-1.21,2.41-3.33,5.26-8.23,5.26-4.35,0-10.88-2.9-10.88-15.47,0-8.59,3.09-16.14,11.25-16.14,4.54,0,6.64,2.6,8.22,5.32h.24c0-1.64.19-3.21.24-4.83h6.76c-.12,1.64-.24,3.26-.24,4.9v22.97c0,9.73-2.96,16.68-14.39,16.68-4.95,0-8.88-1.27-10.7-1.93l.43-6.64v-.03ZM364.29,693.35c4.71,0,6.59-3.38,6.59-10.45,0-6.52-2.48-10.04-6.04-9.97-3.93.07-5.44,3.69-5.44,10.04,0,7.31,2.36,10.4,4.9,10.4h0Z"/>
    <path class="cls-2" d="M421.09,699.45h-1.33c-8.76,0-16.8-6.52-16.8-21.7s8.04-21.7,16.8-21.7,16.8,6.52,16.8,21.7c0,10.46-3.81,16.8-9,19.71l8.35,9.43h-8.88l-5.92-7.44h-.01ZM419.76,693.53c4.9,0,8.83-4.17,8.83-15.78s-3.93-15.78-8.83-15.78-8.83,4.17-8.83,15.78,3.93,15.78,8.83,15.78Z"/>
    <path class="cls-2" d="M468.78,693.71c0,1.93.05,3.75.24,5.14h-7.02c-.07-1.57-.24-3.21-.24-4.78l-.19-.05.07.05c-1.45,2.3-3.38,5.26-8.28,5.26-7.07,0-9.19-5.26-9.19-11.54v-20.07h7.5v18.68c0,4.78,1.33,6.78,4.47,6.78,3.99,0,5.14-3.62,5.14-7.62v-17.83h7.5v25.99h0Z"/>
    <path class="cls-2" d="M478.5,669.54c2.12-.97,5.07-2.3,9.85-2.3,9.67,0,11.9,4.71,11.9,12.51v13.61c0,2.24.24,4.29.43,5.5h-6.78c-.36-1.21-.43-2.72-.43-4.23h-.12c-1.88,2.54-4.23,4.71-8.71,4.71-4.83,0-9.31-3.33-9.31-9.13,0-8.46,6.88-10.57,16.38-10.57h1.51v-1.15c0-3.09-1.51-5.92-5.8-5.92-3.74,0-7.07,1.81-8.52,3.02l-.43-6.04h.02ZM493.25,683.62h-.67c-6.4,0-10.21,1.33-10.21,5.86,0,2.84,1.88,4.78,4.78,4.78,4.47,0,6.1-3.33,6.1-8.89v-1.76h0Z"/>
    <path class="cls-2" d="M509.38,653.52h7.5v45.34h-7.5v-45.34Z"/>
    <path class="cls-2" d="M526.41,654.49h7.74v7.38h-7.74v-7.38ZM526.53,667.72h7.5v31.13h-7.5v-31.13Z"/>
    <path class="cls-2" d="M545.38,673.22h-5.2v-5.5h5.2v-6.35c0-4.47,2.12-8.59,8.95-8.59,2,0,3.93.43,5.38.72l-.31,5.44c-.91-.24-1.88-.48-2.96-.48-2.17,0-3.57,1.52-3.57,3.87v5.38h5.68v5.5h-5.68v25.63h-7.5v-25.63h0Z"/>
    <path class="cls-2" d="M565.14,654.49h7.74v7.38h-7.74v-7.38ZM565.26,667.72h7.5v31.13h-7.5v-31.13Z"/>
    <path class="cls-2" d="M602.86,698.07c-1.76.67-4.35,1.27-7.38,1.27-10.28,0-14.63-7.19-14.63-16.02s4.59-16.08,15.05-16.08c2.36,0,5.14.73,6.52,1.27l-.43,5.92c-1.33-.67-3.21-1.52-5.26-1.52-5.68,0-8.16,3.81-8.16,10.45,0,5.8,2.78,10.28,8.52,10.28,1.81,0,4.29-.85,5.31-1.51l.43,5.92h.02Z"/>
    <path class="cls-2" d="M610.4,669.54c2.12-.97,5.08-2.3,9.85-2.3,9.67,0,11.91,4.71,11.91,12.51v13.61c0,2.24.24,4.29.43,5.5h-6.78c-.36-1.21-.43-2.72-.43-4.23h-.12c-1.88,2.54-4.23,4.71-8.71,4.71-4.83,0-9.31-3.33-9.31-9.13,0-8.46,6.9-10.57,16.38-10.57h1.51v-1.15c0-3.09-1.51-5.92-5.8-5.92-3.75,0-7.07,1.81-8.52,3.02l-.43-6.04h.01ZM625.15,683.62h-.67c-6.4,0-10.21,1.33-10.21,5.86,0,2.84,1.88,4.78,4.78,4.78,4.47,0,6.11-3.33,6.11-8.89v-1.76h-.01Z"/>
    <path class="cls-2" d="M643.33,661.31l7.5-2.29v8.71h6.23v5.5h-6.23v16.14c0,3.33,1.21,4.29,3.38,4.29,1.33,0,2.29-.36,2.84-.67v5.31c-1.15.55-2.78,1.03-5.02,1.03-5.56,0-8.71-2.54-8.71-9.07v-17.04h-4.95v-5.5h4.95v-6.4h.01Z"/>
    <path class="cls-2" d="M663.88,654.49h7.74v7.38h-7.74v-7.38ZM664,667.72h7.5v31.13h-7.5v-31.13Z"/>
    <path class="cls-2" d="M693.31,667.23c6.35,0,13.66,3.33,13.66,16.02s-7.31,16.08-13.66,16.08-13.73-3.02-13.73-16.08,7.38-16.02,13.73-16.02ZM693.31,694.02c4.83,0,5.92-5.56,5.92-10.76s-1.09-10.7-5.92-10.7-5.98,5.5-5.98,10.7,1.15,10.76,5.98,10.76Z"/>
    <path class="cls-2" d="M714.34,672.86c0-1.93-.05-3.74-.24-5.14h7.02c.05,1.57.24,3.21.24,4.78h.19-.07c1.09-1.88,3.21-5.26,8.28-5.26,7.07,0,9.19,5.26,9.19,11.54v20.07h-7.5v-18.68c0-4.78-1.21-6.76-4.29-6.76-3.93,0-5.32,3.33-5.32,7.31v18.13h-7.5v-25.99Z"/>
    <path class="cls-2" d="M746.3,691.6c1.21.48,4.29,2.05,7.8,2.05,2.72,0,4.83-.67,4.83-3.08,0-1.21-.6-2.36-3.33-3.93l-3.09-1.81c-3.14-1.88-6.59-3.87-6.59-8.77,0-4.29,4.17-8.83,10.76-8.83,3.99,0,7.07,1.03,7.8,1.27l-.43,5.8c-1.88-.72-3.87-1.39-6.59-1.39-3.02,0-4.29,1.15-4.29,3.02,0,1.69,1.33,2.6,3.5,3.99l3.69,2.36c3.87,2.48,5.8,4.23,5.8,7.86,0,5.74-4.83,9.19-11.61,9.19-3.87,0-7.07-.91-8.64-1.52l.36-6.23h.01Z"/>
    <path class="cls-2" d="M791.44,656.66h12.33c8.71,0,12.69,3.26,12.69,10.4,0,6.71-4.23,8.71-7.02,9.73v.12c3.26.73,7.98,3.02,7.98,10.09,0,7.68-5.62,11.85-13.12,11.85h-12.88v-42.19h.01ZM798.93,674.3h3.99c3.81,0,6.04-2.84,6.04-6.28s-2.54-5.68-6.23-5.68h-3.81v11.97h0ZM798.93,692.93h4.29c4.17,0,6.47-2.54,6.47-6.47,0-3.69-1.93-6.47-6.71-6.47h-4.05v12.94h0Z"/>
    <path class="cls-2" d="M838.28,667.23c6.35,0,13.66,3.33,13.66,16.02s-7.31,16.08-13.66,16.08-13.73-3.02-13.73-16.08,7.38-16.02,13.73-16.02ZM838.28,694.02c4.83,0,5.92-5.56,5.92-10.76s-1.09-10.7-5.92-10.7-5.98,5.5-5.98,10.7,1.15,10.76,5.98,10.76Z"/>
    <path class="cls-2" d="M860.81,669.54c2.12-.97,5.08-2.3,9.85-2.3,9.67,0,11.91,4.71,11.91,12.51v13.61c0,2.24.24,4.29.43,5.5h-6.76c-.36-1.21-.43-2.72-.43-4.23h-.12c-1.88,2.54-4.23,4.71-8.71,4.71-4.83,0-9.31-3.33-9.31-9.13,0-8.46,6.9-10.57,16.38-10.57h1.51v-1.15c0-3.09-1.51-5.92-5.8-5.92-3.75,0-7.07,1.81-8.52,3.02l-.43-6.04ZM875.56,683.62h-.67c-6.4,0-10.21,1.33-10.21,5.86,0,2.84,1.88,4.78,4.78,4.78,4.47,0,6.11-3.33,6.11-8.89v-1.76h-.01Z"/>
    <path class="cls-2" d="M891.21,672.86c0-1.93-.07-3.74-.24-5.14h6.78c.05,1.88.24,3.81.24,5.68h.12c.91-2.42,3.26-6.16,7.92-6.16.48,0,.85.12,1.27.19v7.02c-.67-.19-1.33-.31-2.12-.31-3.08,0-6.47,1.88-6.47,7.68v17.04h-7.5v-25.99h0Z"/>
    <path class="cls-2" d="M938.66,653.52v40.02c0,2.24.07,4.17.24,5.31h-7.02c-.12-.91-.24-2.72-.24-4.83h-.19c-1.21,2.66-3.45,5.31-8.28,5.31-7.74,0-10.94-7.38-10.94-16.02,0-10.16,4.05-16.08,10.76-16.08,4.47,0,6.95,2.54,8.04,4.95h.12v-18.68h7.51ZM925.25,693.83c4.41,0,5.92-4.78,5.92-10.64s-1.69-10.45-5.8-10.45-5.62,4.05-5.62,10.28c0,7.19,1.15,10.82,5.5,10.82h0Z"/>
  </g>
  <path class="cls-2" d="M524.37,453.34c.54,0,1.02.09,1.46.26.43.18.79.41,1.11.71.3.3.54.66.7,1.06.17.39.25.83.25,1.29,0,.71-.15,1.32-.45,1.84s-.78.91-1.46,1.17v.03c.32.09.6.23.81.42.22.19.39.4.52.65.13.26.24.53.3.84.06.3.11.61.13.91.01.19.03.41.04.67,0,.26.03.52.06.79.03.27.07.53.13.77s.15.44.28.61h-2.65c-.15-.38-.23-.84-.27-1.36-.03-.53-.08-1.04-.15-1.52-.09-.63-.28-1.08-.57-1.38-.29-.29-.78-.44-1.44-.44h-2.64v4.7h-2.65v-12.03h6.49ZM523.43,458.78c.6,0,1.06-.14,1.36-.4.3-.27.46-.71.46-1.31s-.15-1.01-.46-1.28c-.3-.27-.76-.39-1.36-.39h-2.9v3.39h2.9Z"/>
  <path class="cls-2" d="M522.79,470.08c-5.88,0-10.67-4.79-10.67-10.67s4.79-10.67,10.67-10.67,10.66,4.79,10.66,10.67-4.78,10.67-10.66,10.67ZM522.79,449.24c-5.61,0-10.17,4.56-10.17,10.17s4.56,10.17,10.17,10.17,10.16-4.56,10.16-10.17-4.56-10.17-10.16-10.17Z"/>
</svg>